<svg xmlns="http://www.w3.org/2000/svg" xmlns:xlink="http://www.w3.org/1999/xlink" width="32" height="32" viewBox="0 0 32 32">
  <defs>
    <clipPath id="clip-path">
      <rect id="Rectangle_63381" data-name="Rectangle 63381" width="32" height="32" transform="translate(32 32.5)" fill="#fff"/>
    </clipPath>
  </defs>
  <g id="Group_235497" data-name="Group 235497" transform="translate(-32 -32.5)" clip-path="url(#clip-path)">
    <path id="Path_316292" data-name="Path 316292" d="M59.25,56.5h-1v-20a1,1,0,0,0-1-1h-7a1,1,0,0,0-1,1v5h-6a1,1,0,0,0-1,1v5h-5a1,1,0,0,0-1,1v8h-1a1,1,0,0,0,0,2h24a1,1,0,0,0,0-2Zm-8-19h5v19h-5Zm-7,6h5v13h-5Zm-6,6h4v7h-4Z" transform="translate(0.75 1)" fill="#fff" fill-rule="evenodd"/>
  </g>
</svg>
