<svg xmlns="http://www.w3.org/2000/svg" width="24" height="24.001" viewBox="0 0 24 24.001">
  <g id="Group_226201" data-name="Group 226201" transform="translate(-255 -810.999)">
    <rect id="Rectangle_24544" data-name="Rectangle 24544" width="24" height="24" transform="translate(255 811)" fill="none" opacity="0"/>
    <path id="Icon_simple-email" data-name="Icon simple-email" d="M23.419,11.077a12.378,12.378,0,0,1-.4,2.685,7.769,7.769,0,0,1-1.044,2.358,5.508,5.508,0,0,1-1.77,1.675,5,5,0,0,1-2.584.637,3.746,3.746,0,0,1-1.869-.457,3.2,3.2,0,0,1-1.263-1.294,4,4,0,0,1-3.387,1.7,3.443,3.443,0,0,1-2.956-1.59,5.2,5.2,0,0,1-.735-1.842,7.943,7.943,0,0,1-.1-2.4A11.161,11.161,0,0,1,8.05,9.6,8,8,0,0,1,9.4,7.35a5.723,5.723,0,0,1,1.86-1.437,5.189,5.189,0,0,1,2.262-.5,7.033,7.033,0,0,1,1.353.115,5.537,5.537,0,0,1,1.05.315,5.677,5.677,0,0,1,.87.459c.265.171.532.348.8.528l-.657,7.559a2.512,2.512,0,0,0,.019.885,1.238,1.238,0,0,0,.27.546.972.972,0,0,0,.438.285,1.626,1.626,0,0,0,1.539-.3,3.28,3.28,0,0,0,.825-1.05,6.761,6.761,0,0,0,.555-1.578,10.825,10.825,0,0,0,.243-1.965,12.556,12.556,0,0,0-.309-3.671A7.3,7.3,0,0,0,19.159,4.7a6.31,6.31,0,0,0-2.436-1.83,8.84,8.84,0,0,0-3.548-.649,7.835,7.835,0,0,0-3.509.765A8.052,8.052,0,0,0,7,5.1a10.178,10.178,0,0,0-1.746,3.19,14.376,14.376,0,0,0-.735,3.974,13.216,13.216,0,0,0,.375,4.055,7.324,7.324,0,0,0,1.482,2.907,6.184,6.184,0,0,0,2.511,1.746,9.63,9.63,0,0,0,3.464.579,11.866,11.866,0,0,0,2.274-.244c.375-.075.73-.165,1.069-.264a8.048,8.048,0,0,0,.921-.33l.475,2.139a5.278,5.278,0,0,1-1.03.51,9.918,9.918,0,0,1-1.218.352A11.883,11.883,0,0,1,12.3,24a13.339,13.339,0,0,1-4.637-.747,8.535,8.535,0,0,1-3.381-2.223,9.335,9.335,0,0,1-2.029-3.67,15.654,15.654,0,0,1-.567-5.095,15.538,15.538,0,0,1,.975-4.889A12.1,12.1,0,0,1,5.007,3.493,10.7,10.7,0,0,1,8.59.93,11.218,11.218,0,0,1,13.23,0a11.712,11.712,0,0,1,4.5.805A8.745,8.745,0,0,1,20.972,3.07a9.294,9.294,0,0,1,1.926,3.5A13.379,13.379,0,0,1,23.419,11.077Zm-12.88,1.47a5.1,5.1,0,0,0,.264,2.53,1.357,1.357,0,0,0,1.3.855,1.441,1.441,0,0,0,.447-.082,1.594,1.594,0,0,0,.514-.309,2.745,2.745,0,0,0,.522-.63,4.834,4.834,0,0,0,.48-1.065l.513-5.873a3.064,3.064,0,0,0-.8-.1,2.759,2.759,0,0,0-1.327.3,2.628,2.628,0,0,0-.94.894,5.249,5.249,0,0,0-.624,1.47,12.468,12.468,0,0,0-.354,2.01Z" transform="translate(254.448 810.999)" fill="#fff"/>
  </g>
</svg>
