<svg xmlns="http://www.w3.org/2000/svg" width="211" height="64" viewBox="0 0 211 64">
  <g id="Group_234944" data-name="Group 234944" transform="translate(-498 -220)">
    <g id="Group_1" data-name="Group 1" transform="translate(574.885 229.111)">
      <path id="Path_1" data-name="Path 1" d="M363.264,346.912a12.667,12.667,0,0,0-2.606-4.663,11.658,11.658,0,0,0-4.4-3.012,17.441,17.441,0,0,0-6.486-1.07,17.787,17.787,0,0,0-3.027.249l.036-.016s-3.877.342-5.422-.119a14.325,14.325,0,0,1-2.462-.869,5.8,5.8,0,0,1-1.883-1.507,5,5,0,0,1-.983-2.431v-1.332q0-1.043-.029-2.2c-.019-.773-.029-4.03-.029-4.687a6.226,6.226,0,0,1,.057-1.159h-6.662c0-.114-.009.01-.029.376s-.029.84-.029,1.42v6.194a8.579,8.579,0,0,0,.492,2.316,5.329,5.329,0,0,0,1.072,1.739,9.512,9.512,0,0,0,1.679,1.418,24.02,24.02,0,0,0,2.317,1.361l-.16,4.4v9.673a21.869,21.869,0,0,0,.985,6.023,11.282,11.282,0,0,0,7.27,7.443,20.142,20.142,0,0,0,6.806,1.013,18.311,18.311,0,0,0,6.486-1.013,11.394,11.394,0,0,0,4.4-2.9,12.159,12.159,0,0,0,2.606-4.547,21.924,21.924,0,0,0,.985-6.023A22.635,22.635,0,0,0,363.264,346.912Zm-5.676,7.125a17.534,17.534,0,0,1-.58,4.866,7.751,7.751,0,0,1-1.652,3.127,5.748,5.748,0,0,1-2.577,1.621,10.06,10.06,0,0,1-3.3.406,9.607,9.607,0,0,1-3.3-.435,5.963,5.963,0,0,1-2.577-1.651,7.731,7.731,0,0,1-1.652-3.1,17.212,17.212,0,0,1-.578-4.836v-2.028a17.871,17.871,0,0,1,.578-4.9,8.556,8.556,0,0,1,1.652-3.243,6.142,6.142,0,0,1,2.577-1.795,8.7,8.7,0,0,1,3.3-.492,9.113,9.113,0,0,1,3.3.462,5.906,5.906,0,0,1,2.577,1.767,8.565,8.565,0,0,1,1.652,3.272,18.182,18.182,0,0,1,.58,4.924Z" transform="translate(-329.308 -324.053)" fill="#94aeda"/>
      <path id="Path_2" data-name="Path 2" d="M363.477,350.37a18.9,18.9,0,0,0,.667,3.243,9.212,9.212,0,0,0,1.564,3.071A8.545,8.545,0,0,0,368.516,359a9.158,9.158,0,0,0,4.345.926,23.568,23.568,0,0,0,5.792-.985l.464,1.912q-1.8.811-3.649,1.505a9.425,9.425,0,0,1-3.881.58,14.91,14.91,0,0,1-5.647-1.043,13.555,13.555,0,0,1-4.488-2.924,14.039,14.039,0,0,1-3.041-4.491,15.706,15.706,0,0,1-1.245-5.733,14.263,14.263,0,0,1,1.04-5.445,14.012,14.012,0,0,1,2.927-4.488,14.462,14.462,0,0,1,4.431-3.1,14.708,14.708,0,0,1,5.561-1.275,15.163,15.163,0,0,1,5.792,1.188,13.566,13.566,0,0,1,4.459,3.07,13.549,13.549,0,0,1,3.708,9.935c0,.193-.01.474-.03.84s-.029.667-.029.9Zm4.373-11.845a7.33,7.33,0,0,0-2.2,2.028,10.177,10.177,0,0,0-1.42,2.866,16.223,16.223,0,0,0-.694,3.36h15.175q-.466-4.751-2.492-6.894a6.86,6.86,0,0,0-5.213-2.142h-.114A5.8,5.8,0,0,0,367.85,338.524Z" transform="translate(-317.299 -319.76)" fill="#fff"/>
      <path id="Path_3" data-name="Path 3" d="M404.741,371.263v1.853q0,.869-.029,1.42c-.02.366-.03.491-.03.376h-6.66a6.192,6.192,0,0,0,.057-1.158q0-.987-.029-2.144c-.02-.774-.029-1.505-.029-2.2v-1.334a4.99,4.99,0,0,0-.985-2.431,5.793,5.793,0,0,0-1.883-1.507,10.035,10.035,0,0,0-2.46-.869q-1.333-.288-2.666-.578a11.436,11.436,0,0,1-7.674-5.012,18.133,18.133,0,0,1-2.4-9.759V334.076h6.662v15.64a17.986,17.986,0,0,0,.549,4.836,7.946,7.946,0,0,0,1.564,3.1,5.6,5.6,0,0,0,2.461,1.65,9.119,9.119,0,0,0,3.244.435,9.313,9.313,0,0,0,3.214-.406,5.22,5.22,0,0,0,2.4-1.621,7.856,7.856,0,0,0,1.505-3.127,19.321,19.321,0,0,0,.522-4.866v-15.64h6.662V347.92a19.149,19.149,0,0,1-1.682,8.4,11.494,11.494,0,0,1-5.037,5.271,3.975,3.975,0,0,1-1.391.608,9.43,9.43,0,0,0-1.448.434,24.053,24.053,0,0,1,2.318,1.362,9.452,9.452,0,0,1,1.679,1.418,5.346,5.346,0,0,1,1.072,1.737,8.649,8.649,0,0,1,.492,2.317Z" transform="translate(-307.476 -320.064)" fill="#fff"/>
      <path id="Path_4" data-name="Path 4" d="M409.819,350.37a18.9,18.9,0,0,0,.667,3.243,9.208,9.208,0,0,0,1.564,3.071A8.544,8.544,0,0,0,414.857,359a9.158,9.158,0,0,0,4.345.926,23.566,23.566,0,0,0,5.792-.985l.464,1.912q-1.8.811-3.649,1.505a9.425,9.425,0,0,1-3.881.58,14.911,14.911,0,0,1-5.647-1.043,13.555,13.555,0,0,1-4.488-2.924,14.04,14.04,0,0,1-3.041-4.491,15.706,15.706,0,0,1-1.245-5.733,14.263,14.263,0,0,1,1.04-5.445,14.014,14.014,0,0,1,2.927-4.488,14.46,14.46,0,0,1,4.431-3.1,14.709,14.709,0,0,1,5.561-1.275,15.163,15.163,0,0,1,5.792,1.188,13.567,13.567,0,0,1,4.459,3.07,13.55,13.55,0,0,1,3.708,9.935c0,.193-.01.474-.03.84s-.029.667-.029.9Zm4.373-11.845a7.331,7.331,0,0,0-2.2,2.028,10.181,10.181,0,0,0-1.42,2.866,16.231,16.231,0,0,0-.694,3.36h15.175q-.466-4.751-2.492-6.894a6.858,6.858,0,0,0-5.214-2.142h-.114A5.8,5.8,0,0,0,414.192,338.524Z" transform="translate(-297.321 -319.76)" fill="#fff"/>
    </g>
    <g id="Group_229479" data-name="Group 229479" transform="translate(498 220)">
      <path id="Path_5" data-name="Path 5" d="M304.578,349.13l-21.053-24.656s3.934-3.512,7.194-4.763Z" transform="translate(-272.819 -316.815)" fill="#243884"/>
      <path id="Path_6" data-name="Path 6" d="M301.621,348.8l-11.235-27.315a23.953,23.953,0,0,1,2.917-1.02Z" transform="translate(-269.862 -316.488)" fill="#243884"/>
      <path id="Path_7" data-name="Path 7" d="M298.137,349.921l2.69-32.234a66.574,66.574,0,0,1,8.316,2.071Z" transform="translate(-266.383 -317.687)" fill="#ef5513"/>
      <path id="Path_8" data-name="Path 8" d="M298.118,348.225l11.26-26.5a22.292,22.292,0,0,1,6.315,3.958Z" transform="translate(-266.387 -315.947)" fill="#243884"/>
      <path id="Path_9" data-name="Path 9" d="M298.049,348.209l22.361-26.053a51.069,51.069,0,0,1,8.725,11.443Z" transform="translate(-266.558 -315.761)" fill="#94aeda"/>
      <path id="Path_10" data-name="Path 10" d="M298.118,343.616l27.488-11.2,1.02,2.916Z" transform="translate(-266.378 -311.469)" fill="#243884"/>
      <path id="Path_11" data-name="Path 11" d="M298.185,342.818l31.915-7.894s.926,7.121.554,8.651Z" transform="translate(-266.346 -310.403)" fill="#76808e"/>
      <path id="Path_12" data-name="Path 12" d="M298.116,340.559l29.624,1.975a13.179,13.179,0,0,1-2.127,7.344Z" transform="translate(-266.379 -308.024)" fill="#243884"/>
      <path id="Path_13" data-name="Path 13" d="M298.287,340.5l27.2,11.045a46.78,46.78,0,0,1-3.878,6.679Z" transform="translate(-266.306 -308.085)" fill="#3f3f3f"/>
      <path id="Path_14" data-name="Path 14" d="M298.191,340.117l25.986,22.312a31.176,31.176,0,0,1-6.8,6.088Z" transform="translate(-266.349 -308.349)" fill="#006db6"/>
      <path id="Path_15" data-name="Path 15" d="M298.471,340.447l15.039,24.976s-5.415,3.9-11.592,4.06Z" transform="translate(-266.235 -308.207)" fill="#042e6e"/>
      <g id="Group_2" data-name="Group 2" transform="translate(24.936 2.759)">
        <path id="Path_16" data-name="Path 16" d="M299.979,348.991l-6.51-28.553a44.506,44.506,0,0,1,7.666-.8Z" transform="translate(-293.469 -319.615)" fill="#76808e"/>
      </g>
      <path id="Path_17" data-name="Path 17" d="M298.742,340.255l.021.336,1.716,26.9-2.776,0" transform="translate(-266.707 -308.29)" fill="#243884"/>
      <path id="Path_18" data-name="Path 18" d="M300.3,340.449l-2.735,29.194s-2.081-.19-3.33-.461Z" transform="translate(-268.201 -308.206)" fill="#243884"/>
      <path id="Path_19" data-name="Path 19" d="M302.145,340.255l-6.609,24.864a35.241,35.241,0,0,1-5.727-2.162Z" transform="translate(-270.11 -308.289)" fill="#243884"/>
      <path id="Path_20" data-name="Path 20" d="M305.861,340.255,290.083,365.43s-6.593-4.452-8.893-8.478Z" transform="translate(-273.826 -308.289)" fill="#94aeda"/>
      <path id="Path_21" data-name="Path 21" d="M308.079,340.255l-30.166,18.4s-1.242-2.074-1.869-3.49Z" transform="translate(-276.044 -308.191)" fill="#3f3f3f"/>
      <path id="Path_22" data-name="Path 22" d="M307.37,340.5l-27.592,11.253a27.523,27.523,0,0,1-2-12.067Z" transform="translate(-275.335 -308.403)" fill="#3f3f3f"/>
      <path id="Path_23" data-name="Path 23" d="M307.385,341.893l-29.73-2.373a22.977,22.977,0,0,1,.408-3.065Z" transform="translate(-275.349 -309.747)" fill="#243884"/>
      <path id="Path_24" data-name="Path 24" d="M307.163,344.515l-29-6.951a32.842,32.842,0,0,1,2.789-7.191l26,14.491" transform="translate(-275.129 -312.339)" fill="#042e6e"/>
      <path id="Path_25" data-name="Path 25" d="M307.265,346.373l-29.333-17.749s1.3-1.989,1.727-2.56Z" transform="translate(-275.23 -314.166)" fill="#003a83"/>
      <path id="Path_26" data-name="Path 26" d="M306.321,347.734l-26.2-22.076a20.473,20.473,0,0,1,2.62-2.751l24.078,25.117" transform="translate(-274.285 -315.437)" fill="#3f3f3f"/>
      <path id="Path_28" data-name="Path 28" d="M299.727,339.221a1.857,1.857,0,1,1-2.539.674A1.859,1.859,0,0,1,299.727,339.221Z" transform="translate(-267.037 -308.679)" fill="#fff"/>
      <path id="Path_29" data-name="Path 29" d="M299.579,339.326a1.671,1.671,0,1,1-2.284.605A1.67,1.67,0,0,1,299.579,339.326Z" transform="translate(-266.981 -308.622)" fill="#fff"/>
    </g>
  </g>
</svg>
