<svg xmlns="http://www.w3.org/2000/svg" width="499.25" height="467.5" viewBox="0 0 499.25 467.5">
  <g id="Group_235537" data-name="Group 235537" transform="translate(-725.75 -6039.75)">
    <circle id="Ellipse_9855" data-name="Ellipse 9855" cx="233.5" cy="233.5" r="233.5" transform="translate(726 6040)" fill="none" stroke="#afb7bc" stroke-width="0.5"/>
    <path id="Path_311242" data-name="Path 311242" d="M453.331,133.242a6.011,6.011,0,1,1,4.241-1.76A5.97,5.97,0,0,1,453.331,133.242Z" transform="translate(670.666 5980.859)" fill="#afb7bc"/>
    <path id="Path_311266" data-name="Path 311266" d="M453.331,133.242a6.011,6.011,0,1,1,4.241-1.76A5.97,5.97,0,0,1,453.331,133.242Z" transform="translate(739.666 6146.791)" fill="#afb7bc"/>
    <line id="Line_3571" data-name="Line 3571" x2="32" transform="translate(1193 6274)" fill="none" stroke="#afb7bc" stroke-width="1"/>
    <line id="Line_3569" data-name="Line 3569" y1="34" x2="32" transform="translate(1124 6074)" fill="none" stroke="#afb7bc" stroke-width="1"/>
    <line id="Line_3570" data-name="Line 3570" x2="32" y2="34" transform="translate(1124 6439)" fill="none" stroke="#afb7bc" stroke-width="1"/>
    <path id="Path_311263" data-name="Path 311263" d="M453.331,133.242a6.011,6.011,0,1,1,4.241-1.76A5.97,5.97,0,0,1,453.331,133.242Z" transform="translate(670.666 6312.002)" fill="#afb7bc"/>
  </g>
</svg>
