<svg xmlns="http://www.w3.org/2000/svg" xmlns:xlink="http://www.w3.org/1999/xlink" width="32" height="32" viewBox="0 0 32 32">
  <defs>
    <clipPath id="clip-path">
      <rect id="Rectangle_63391" data-name="Rectangle 63391" width="32" height="32" transform="translate(267 32.5)" fill="#fff"/>
    </clipPath>
  </defs>
  <g id="Group_235505" data-name="Group 235505" transform="translate(-267 -32.5)" clip-path="url(#clip-path)">
    <path id="Path_316302" data-name="Path 316302" d="M282,34.75c-6.729,0-12,3.075-12,7v12c0,3.925,5.271,7,12,7s12-3.075,12-7v-12C294,37.825,288.729,34.75,282,34.75Zm10,13c0,1.2-.985,2.429-2.7,3.365a17.109,17.109,0,0,1-14.6,0c-1.716-.936-2.7-2.163-2.7-3.365V45.67c2.132,1.875,5.779,3.08,10,3.08s7.868-1.21,10-3.08Zm-17.3-9.365a17.108,17.108,0,0,1,14.6,0c1.716.936,2.7,2.162,2.7,3.365s-.985,2.429-2.7,3.365a17.109,17.109,0,0,1-14.6,0c-1.716-.936-2.7-2.163-2.7-3.365S272.985,39.321,274.7,38.385Zm14.6,18.73a17.109,17.109,0,0,1-14.6,0c-1.716-.936-2.7-2.163-2.7-3.365V51.67c2.132,1.875,5.779,3.08,10,3.08s7.868-1.21,10-3.08v2.08C292,54.953,291.015,56.179,289.3,57.115Z" transform="translate(1 0.75)" fill="#fff" fill-rule="evenodd"/>
  </g>
</svg>
