<svg xmlns="http://www.w3.org/2000/svg" width="50" height="50.001" viewBox="0 0 50 50.001">
  <g id="Group_234931" data-name="Group 234931" transform="translate(-622 -6247)">
    <rect id="Rectangle_62809" data-name="Rectangle 62809" width="50" height="50" transform="translate(622 6247)" fill="none" opacity="0"/>
    <g id="Group_234930" data-name="Group 234930" transform="translate(-1 0.004)">
      <path id="Path_311249" data-name="Path 311249" d="M242.2,199.108a5.98,5.98,0,1,0-5.977,5.979A5.98,5.98,0,0,0,242.2,199.108Z" transform="translate(412.203 6067.074)" fill="#042e6e"/>
      <path id="Path_311250" data-name="Path 311250" d="M239.418,234.265l0,0c.117.121.232.241.348.356.017.019.033.036.054.057l.268.27c.027.029.054.057.082.084.082.082.163.163.245.243.021.021.042.044.065.065.2.2.387.385.563.557l.073.067c.061.061.119.117.18.174.027.029.057.054.084.082.054.054.111.1.161.155l.071.067c.069.069.14.134.207.2a1.912,1.912,0,0,0,.22.182c.025.017.052.029.075.046.05.029.1.061.153.086.031.013.063.021.092.031a.948.948,0,0,0,.136.048c.031.008.065.008.1.015a.878.878,0,0,0,.13.015l.019,0c.034,0,.071-.008.1-.01a.419.419,0,0,0,.088-.01c.044-.008.084-.023.128-.036a.628.628,0,0,0,.082-.027,1.511,1.511,0,0,0,.14-.073c.021-.015.044-.023.063-.036a1.564,1.564,0,0,0,.2-.157c.067-.065.138-.132.216-.2l.046-.044c.065-.063.134-.128.2-.2l.038-.038q.4-.377.888-.863l.01-.013c.322-.318.674-.674,1.051-1.061l.031-.031h0c5.3-5.466,15.119-17.074,15.119-28.111,0-10.544-8.657-19.09-18.425-19.09S224.3,195.61,224.3,206.154c0,11.035,9.815,22.645,15.119,28.111Zm-6.608-28.526a9.917,9.917,0,1,1,9.918,9.918A9.915,9.915,0,0,1,232.81,205.739Z" transform="translate(405.703 6059.934)" fill="#042e6e"/>
    </g>
  </g>
</svg>
