<svg xmlns="http://www.w3.org/2000/svg" width="188" height="43" viewBox="0 0 188 43">
  <g id="Group_235415" data-name="Group 235415" style="mix-blend-mode: luminosity;isolation: isolate">
    <g id="Group_5409" data-name="Group 5409">
      <path id="Path_18406" data-name="Path 18406" d="M38.427,9h-.39a1.852,1.852,0,0,0-1.559,1.48c-2.84,11.157-8.465,19.581-15.315,22.541,6.237-.854,11.751-5.066,15.482-11.27a33.75,33.75,0,0,1-6.126,12.466,22.941,22.941,0,0,1-9.69,2.163c-7.24,0-13.867-3.472-19.158-9.221a.89.89,0,0,0-.724-.342H.78a.2.2,0,0,0-.167.057h0c-.056,0-.111.057-.167.057h0c-.056.057-.111.057-.167.114A.594.594,0,0,0,0,27.215C4.567,35.07,11.918,40.591,20.439,41.673a18.244,18.244,0,0,1-13.533-.455,21.978,21.978,0,0,0,3.9,3.3h0a1.213,1.213,0,0,1,.278.171h.056c.111.057.167.114.278.171a.055.055,0,0,1,.056.057c.111.057.167.114.278.171l.056.057c.111.057.167.114.278.114.056,0,.056.057.111.057.111.057.167.114.278.114.056,0,.056,0,.111.057.111.057.167.057.278.114.056,0,.056,0,.111.057.111.057.167.057.278.114a.055.055,0,0,1,.056.057,7.838,7.838,0,0,0,1.225.455l.111.057c.056,0,.167.057.223.057s.111.057.167.057.111.057.223.057c.056,0,.111.057.167.057s.111.057.167.057.111.057.167.057a.2.2,0,0,1,.167.057.2.2,0,0,1,.167.057.2.2,0,0,1,.167.057.414.414,0,0,1,.223.057h.167a.414.414,0,0,1,.223.057H18.6c7.574-.114,14.257-6.717,18.1-16.678h0a53.019,53.019,0,0,0,3.286-17.418V11.049A2.008,2.008,0,0,0,38.427,9" transform="translate(0 -3.966)" fill="#e30613"/>
      <path id="Path_18407" data-name="Path 18407" d="M0,40.7a.769.769,0,0,1,.223-.167.98.98,0,0,1,1.392.167c5.291,5.681,11.974,9.022,19.158,9.022A25.219,25.219,0,0,0,36.7,43.759a32.592,32.592,0,0,1-6.349,10.47,24.769,24.769,0,0,1-6.683.891C13.811,55.064,5.124,49.384,0,40.7" transform="translate(0 -17.021)" fill="#ffd618"/>
      <path id="Path_18408" data-name="Path 18408" d="M39.986,11.391v-.342h0a2.179,2.179,0,0,0-.446-1.309h0c-.056-.114-.167-.171-.223-.228l-.056-.057L39.1,9.285a.2.2,0,0,0-.167-.057.193.193,0,0,1-.111-.057A2,2,0,0,0,38.427,9h-.5a2.013,2.013,0,0,0-1.5,1.48c-2.84,11.157-9.356,19.183-15.315,22.542,6.237-.854,11.751-5.066,15.482-11.271a32.736,32.736,0,0,1-8.966,15.54A20.218,20.218,0,0,1,20.55,38.6c-7.908,0-14.925-4.554-19.6-11.783a.865.865,0,0,0-.724.228A.771.771,0,0,0,0,27.215c4.567,7.855,11.918,13.377,20.439,14.458a18.09,18.09,0,0,1-13.477-.455l.78.8h0l.167.171c.111.114.278.228.39.342a.771.771,0,0,0,.223.171c.167.114.278.285.446.4a.055.055,0,0,1,.056.057,19.26,19.26,0,0,0,1.726,1.252c.056.057.111.057.167.114.167.114.278.171.446.285.056.057.167.114.223.171.111.057.278.171.39.228s.167.114.278.171.278.114.39.171l.334.171c.111.057.278.114.39.171A.78.78,0,0,0,13.7,46a.792.792,0,0,0,.39.114c.111.057.223.057.334.114a3.49,3.49,0,0,0,.39.114c.111.057.278.057.39.114s.223.057.334.114.278.057.39.114c.111,0,.223.057.334.057.167,0,.278.057.446.057.111,0,.223.057.334.057.167,0,.334.057.5.057H18.6c4.344,0,8.409-2.163,11.807-5.863h0c.223-.285.5-.512.724-.8.056-.057.111-.114.111-.171l.668-.854.167-.171a8.14,8.14,0,0,0,.613-.854.784.784,0,0,0,.167-.228c.223-.285.39-.626.613-.911.056-.057.111-.171.167-.228.167-.285.39-.626.557-.911.056-.114.111-.171.167-.285.167-.342.334-.626.5-.968.056-.114.111-.171.167-.285.167-.342.334-.683.5-.968l.167-.342a8.156,8.156,0,0,0,.446-1.025c.056-.057.056-.114.111-.228h0a51.53,51.53,0,0,0,3.787-17.589V13.1c-.056-.626-.056-1.2-.056-1.708" transform="translate(0 -3.966)" fill="#e30613"/>
      <path id="Path_18409" data-name="Path 18409" d="M12.4,1.375S36.292,2.823,26.211,28.107c0,.056,37.313-35.587-13.811-26.732" transform="translate(-5.494 0.038)" fill="#e30613"/>
    </g>
    <g id="Group_5410" data-name="Group 5410" transform="translate(48.048 15.266)">
      <path id="Path_18410" data-name="Path 18410" d="M84.778,29.886h5.959c1.114,0,2.506.446,2.506,2.116a2.061,2.061,0,0,1-1.949,2.172H84.778ZM80.1,43.809h4.678V37.515h5.848c1.448,0,2.506.613,2.506,3.007,0,1.782,0,2.506.446,3.286H98.7c-.835-.891-.891-2.9-.891-3.731,0-1.671-.334-4.288-2.339-4.622V35.4a3.932,3.932,0,0,0,2.785-4.121c0-1.782-.78-4.678-5.569-4.678H80.1Z" transform="translate(-80.1 -26.544)" fill="#e30613" fill-rule="evenodd"/>
      <path id="Path_18411" data-name="Path 18411" d="M125.387,37.126h-5.4l2.673-6.85ZM128,43.809h5.068L125.5,26.6h-5.625L112.3,43.809h5.012l1.392-3.564h7.908Z" transform="translate(-94.367 -26.544)" fill="#e30613" fill-rule="evenodd"/>
      <path id="Path_18412" data-name="Path 18412" d="M155.378,34.007V26.6H150.7V43.809h4.678V38.685l2.729-2.339,5.848,7.463H170.3l-8.521-10.3,7.908-6.906H163.4Z" transform="translate(-111.382 -26.544)" fill="#e30613"/>
      <path id="Path_18413" data-name="Path 18413" d="M194.678,36.413h6.4c1.615,0,2.506.724,2.506,2.061a1.816,1.816,0,0,1-1.615,2h-7.3ZM190,43.764h12.252c5.179,0,6.237-2.9,6.237-5.235,0-1.838-1.058-3.843-3.063-4.177V34.3a3.452,3.452,0,0,0,2.283-3.453c0-3.174-2.339-4.344-4.845-4.344H190Zm4.678-14.09h5.848c1.949,0,2.395.78,2.395,1.838a1.607,1.607,0,0,1-1.782,1.838h-6.516Z" transform="translate(-128.795 -26.5)" fill="#e30613" fill-rule="evenodd"/>
      <path id="Path_18414" data-name="Path 18414" d="M234.087,37.126h-5.4l2.729-6.85Zm2.617,6.683h5.012L234.143,26.6h-5.625L221,43.809h5.012l1.392-3.564h7.908Z" transform="translate(-142.531 -26.544)" fill="#e30613" fill-rule="evenodd"/>
      <path id="Path_18415" data-name="Path 18415" d="M273.935,38.629h-.056L264.858,26.6H259.4V43.809h4.567V31.835h0l9.412,11.974h5.068V26.6h-4.511Z" transform="translate(-159.546 -26.544)" fill="#e30613"/>
      <path id="Path_18416" data-name="Path 18416" d="M300.878,34.007V26.6H296.2V43.809h4.678V38.685l2.729-2.339,5.9,7.463H315.8l-8.521-10.3,7.908-6.906H308.9Z" transform="translate(-175.851 -26.544)" fill="#e30613"/>
    </g>
  </g>
</svg>
